<svg xmlns="http://www.w3.org/2000/svg" xmlns:xlink="http://www.w3.org/1999/xlink" xmlns:svgjs="http://svgjs.com/svgjs" width="512" height="512" x="0" y="0" viewBox="0 0 512 512" style="enable-background:new 0 0 512 512" xml:space="preserve" class=""><g><g xmlns="http://www.w3.org/2000/svg">	<g>		<path d="M511.213,455.33c-1.952-13.798-51.19-331.44-56.503-370.66c-2.656-19.771-19.638-34.894-39.939-34.894h-48.494V26.672    c0-10.768-8.761-19.529-19.529-19.529h-4.006c-10.769,0-19.529,8.761-19.529,19.529v23.103h-81.122V26.672    c0-10.768-8.761-19.529-19.529-19.529h-4.006c-10.769,0-19.529,8.761-19.529,19.529v23.103h-81.122V26.672    c0-10.768-8.761-19.529-19.529-19.529H94.37c-10.769,0-19.529,8.761-19.529,19.529v23.103H40.312C18.084,49.775,0,67.859,0,90.086    c0,11.446,0,368.778,0,374.458c0,22.228,18.084,40.312,40.312,40.312c6.67,0,424.096,0,431.915,0    c16.799,0,31.998-10.584,37.8-26.283C510.817,476.483,513.234,468.643,511.213,455.33z M338.236,26.672    c0-2.485,2.021-4.507,4.507-4.507h4.006c2.485,0,4.507,2.022,4.507,4.507v66.767c0,2.485-2.022,4.507-4.507,4.507h-4.006    c-2.486,0-4.507-2.022-4.507-4.507V26.672z M327.741,105.928c0.346,0.415,0.713,0.81,1.091,1.194    c0.062,0.063,0.123,0.127,0.186,0.189c0.385,0.382,0.787,0.745,1.203,1.093c0.076,0.064,0.152,0.126,0.229,0.189    c0.422,0.344,0.857,0.671,1.308,0.978c0.069,0.047,0.14,0.092,0.21,0.138c0.473,0.313,0.956,0.613,1.456,0.885    c0.026,0.014,0.053,0.026,0.079,0.041c0.498,0.268,1.009,0.514,1.532,0.739c0.056,0.024,0.11,0.05,0.166,0.074    c0.518,0.217,1.049,0.409,1.587,0.582c0.09,0.029,0.179,0.059,0.27,0.086c0.531,0.162,1.072,0.3,1.621,0.418    c0.097,0.021,0.194,0.04,0.292,0.059c0.559,0.11,1.125,0.199,1.7,0.26c0.076,0.008,0.152,0.012,0.228,0.02    c0.608,0.057,1.221,0.093,1.843,0.093h4.006c0.622,0,1.235-0.036,1.843-0.093c0.076-0.007,0.153-0.011,0.228-0.02    c0.575-0.061,1.141-0.15,1.7-0.26c0.098-0.019,0.195-0.038,0.292-0.059c0.55-0.117,1.091-0.255,1.621-0.418    c0.09-0.028,0.18-0.058,0.27-0.086c0.539-0.173,1.07-0.365,1.587-0.582c0.056-0.024,0.11-0.05,0.166-0.074    c0.523-0.225,1.035-0.471,1.532-0.739c0.026-0.014,0.053-0.026,0.079-0.041c0.501-0.272,0.983-0.572,1.456-0.885    c0.07-0.046,0.141-0.091,0.21-0.138c0.451-0.307,0.885-0.635,1.308-0.978c0.077-0.063,0.153-0.125,0.229-0.189    c0.416-0.349,0.817-0.711,1.203-1.093c0.063-0.062,0.124-0.126,0.186-0.189c0.376-0.384,0.743-0.779,1.089-1.194    c0.013,0.271,0.02,0.542,0.02,0.814c0,9.388-7.637,17.025-17.026,17.025c-9.388,0-17.025-7.637-17.025-17.025    C327.721,106.47,327.727,106.199,327.741,105.928z M214.051,26.672c0-2.485,2.021-4.507,4.507-4.507h4.006    c2.485,0,4.507,2.022,4.507,4.507v66.767c0,2.485-2.022,4.507-4.507,4.507h-4.006c-2.486,0-4.507-2.022-4.507-4.507V26.672z     M203.554,105.928c0.346,0.415,0.713,0.81,1.091,1.194c0.062,0.063,0.123,0.127,0.186,0.189c0.385,0.382,0.787,0.745,1.203,1.093    c0.076,0.064,0.152,0.126,0.229,0.189c0.422,0.344,0.857,0.671,1.308,0.978c0.069,0.047,0.14,0.092,0.21,0.138    c0.473,0.313,0.956,0.613,1.456,0.885c0.026,0.014,0.053,0.026,0.079,0.041c0.498,0.268,1.01,0.514,1.532,0.739    c0.056,0.024,0.11,0.05,0.166,0.074c0.518,0.217,1.049,0.409,1.587,0.582c0.09,0.029,0.179,0.059,0.27,0.086    c0.531,0.162,1.072,0.3,1.621,0.418c0.097,0.021,0.194,0.04,0.292,0.059c0.559,0.11,1.125,0.199,1.7,0.26    c0.076,0.008,0.152,0.012,0.229,0.02c0.607,0.057,1.221,0.093,1.843,0.093h4.006c0.622,0,1.235-0.036,1.843-0.093    c0.076-0.007,0.153-0.011,0.229-0.02c0.575-0.061,1.141-0.15,1.7-0.26c0.098-0.019,0.195-0.038,0.292-0.059    c0.55-0.117,1.091-0.255,1.621-0.418c0.09-0.028,0.18-0.058,0.27-0.086c0.539-0.173,1.07-0.365,1.587-0.582    c0.056-0.024,0.11-0.05,0.166-0.074c0.523-0.225,1.035-0.471,1.532-0.739c0.026-0.014,0.053-0.026,0.079-0.041    c0.5-0.272,0.983-0.572,1.456-0.885c0.07-0.046,0.141-0.091,0.21-0.138c0.451-0.307,0.885-0.635,1.308-0.978    c0.077-0.063,0.153-0.125,0.229-0.189c0.416-0.349,0.817-0.711,1.203-1.093c0.063-0.062,0.124-0.126,0.186-0.189    c0.375-0.384,0.742-0.779,1.088-1.194c0.013,0.271,0.02,0.542,0.02,0.814c0,9.388-7.637,17.025-17.026,17.025    s-17.026-7.637-17.026-17.025C203.535,106.47,203.541,106.199,203.554,105.928z M89.864,26.672c0-2.485,2.022-4.507,4.507-4.507    h4.006c2.485,0,4.507,2.022,4.507,4.507c0,12.55,0,53.895,0,66.767c0,2.485-2.022,4.507-4.507,4.507H94.37    c-2.485,0-4.507-2.022-4.507-4.507C89.864,87.402,89.864,33.108,89.864,26.672z M85.051,110.596    c0.026,0.014,0.053,0.026,0.079,0.041c0.498,0.268,1.01,0.514,1.532,0.739c0.056,0.024,0.11,0.05,0.166,0.074    c0.518,0.217,1.049,0.409,1.587,0.582c0.09,0.029,0.179,0.059,0.269,0.086c0.531,0.162,1.072,0.3,1.621,0.418    c0.097,0.021,0.194,0.04,0.292,0.059c0.559,0.11,1.125,0.199,1.7,0.26c0.076,0.008,0.152,0.012,0.229,0.02    c0.607,0.057,1.221,0.093,1.843,0.093h4.006c0.622,0,1.235-0.036,1.843-0.093c0.076-0.007,0.153-0.011,0.229-0.02    c0.575-0.061,1.141-0.15,1.7-0.26c0.098-0.019,0.195-0.038,0.292-0.059c0.55-0.117,1.091-0.255,1.621-0.418    c0.09-0.028,0.18-0.058,0.27-0.086c0.539-0.173,1.07-0.365,1.587-0.582c0.056-0.024,0.11-0.05,0.166-0.074    c0.523-0.225,1.035-0.471,1.532-0.739c0.026-0.014,0.053-0.026,0.079-0.041c0.5-0.272,0.984-0.572,1.456-0.885    c0.07-0.046,0.141-0.091,0.21-0.138c0.451-0.307,0.885-0.635,1.308-0.978c0.077-0.063,0.153-0.125,0.229-0.189    c0.416-0.349,0.817-0.711,1.203-1.093c0.063-0.062,0.124-0.126,0.186-0.189c0.376-0.385,0.743-0.78,1.089-1.195    c0.013,0.271,0.02,0.542,0.02,0.814c0,9.388-7.637,17.025-17.026,17.025c-9.726,0-17.478-8.17-17.005-17.84    C80.899,107.764,82.89,109.417,85.051,110.596z M15.023,90.086c0-13.944,11.345-25.289,25.29-25.289h34.53v18.224    c-21.624,19.649-7.676,55.769,21.532,55.769c17.671,0,32.048-14.377,32.048-32.048c0-9.084-3.872-17.685-10.516-23.722V64.798    h81.122v18.224c-6.644,6.037-10.516,14.637-10.516,23.721c0,17.672,14.377,32.048,32.048,32.048    c17.671,0,32.048-14.377,32.048-32.048c0-9.084-3.872-17.685-10.516-23.722V64.798h81.122v18.224    c-6.644,6.037-10.516,14.637-10.516,23.721c0,17.672,14.377,32.048,32.048,32.048c17.672,0,32.048-14.377,32.048-32.048    c0-9.084-3.872-17.685-10.516-23.722V64.798h48.494c13.945,0,25.291,11.345,25.291,25.289v76.746H15.023V90.086z M495.956,473.312    c-3.653,9.883-13.189,16.523-23.73,16.523h-26.094c5.592-6.921,8.951-15.719,8.951-25.29v-99.483c0-4.148-3.363-7.511-7.511-7.511    c-4.148,0-7.511,3.363-7.511,7.511v99.483c0,13.945-11.346,25.29-25.291,25.29H40.312c-13.945,0-25.29-11.345-25.29-25.29V209.898    h188.062c4.148,0,7.511-3.363,7.511-7.511c0-4.148-3.363-7.511-7.511-7.511H15.023v-13.02h425.04v13.02H238.036    c-4.148,0-7.511,3.363-7.511,7.511c0,4.148,3.363,7.511,7.511,7.511h202.027V330.01c0,4.148,3.363,7.511,7.511,7.511    s7.511-3.363,7.511-7.511c0-5.881,0-135.546,0-141.442L496.33,457.38c0.005,0.038,0.011,0.075,0.017,0.113    C497.935,467.852,495.996,473.206,495.956,473.312z" fill="#000" data-original="#000000" class=""></path>	</g></g><g xmlns="http://www.w3.org/2000/svg">	<g>		<path d="M171.187,248.408h-24.729c-4.148,0-7.511,3.363-7.511,7.511c0,4.148,3.363,7.511,7.511,7.511h24.729    c4.149,0,7.511-3.363,7.511-7.511C178.699,251.771,175.336,248.408,171.187,248.408z" fill="#000" data-original="#000000" class=""></path>	</g></g><g xmlns="http://www.w3.org/2000/svg">	<g>		<path d="M239.936,248.408h-24.732c-4.148,0-7.511,3.363-7.511,7.511c0,4.148,3.363,7.511,7.511,7.511h24.732    c4.149,0,7.511-3.363,7.511-7.511C247.448,251.771,244.086,248.408,239.936,248.408z" fill="#000" data-original="#000000" class=""></path>	</g></g><g xmlns="http://www.w3.org/2000/svg">	<g>		<path d="M308.686,248.408h-24.733c-4.148,0-7.511,3.363-7.511,7.511c0,4.148,3.363,7.511,7.511,7.511h24.733    c4.148,0,7.511-3.363,7.511-7.511C316.198,251.771,312.834,248.408,308.686,248.408z" fill="#000" data-original="#000000" class=""></path>	</g></g><g xmlns="http://www.w3.org/2000/svg">	<g>		<path d="M377.432,248.408H352.7c-4.148,0-7.511,3.363-7.511,7.511c0,4.148,3.363,7.511,7.511,7.511h24.732    c4.149,0,7.511-3.363,7.511-7.511C384.944,251.771,381.582,248.408,377.432,248.408z" fill="#000" data-original="#000000" class=""></path>	</g></g><g xmlns="http://www.w3.org/2000/svg">	<g>		<path d="M102.44,308.924H77.708c-4.148,0-7.511,3.363-7.511,7.511c0,4.148,3.363,7.511,7.511,7.511h24.732    c4.149,0,7.511-3.363,7.511-7.511C109.952,312.286,106.59,308.924,102.44,308.924z" fill="#000" data-original="#000000" class=""></path>	</g></g><g xmlns="http://www.w3.org/2000/svg">	<g>		<path d="M171.187,308.924h-24.729c-4.148,0-7.511,3.363-7.511,7.511c0,4.148,3.363,7.511,7.511,7.511h24.729    c4.149,0,7.511-3.363,7.511-7.511C178.699,312.286,175.336,308.924,171.187,308.924z" fill="#000" data-original="#000000" class=""></path>	</g></g><g xmlns="http://www.w3.org/2000/svg">	<g>		<path d="M239.936,308.924h-24.732c-4.148,0-7.511,3.363-7.511,7.511c0,4.148,3.363,7.511,7.511,7.511h24.732    c4.149,0,7.511-3.363,7.511-7.511C247.448,312.286,244.086,308.924,239.936,308.924z" fill="#000" data-original="#000000" class=""></path>	</g></g><g xmlns="http://www.w3.org/2000/svg">	<g>		<path d="M308.686,308.924h-24.733c-4.148,0-7.511,3.363-7.511,7.511c0,4.148,3.363,7.511,7.511,7.511h24.733    c4.148,0,7.511-3.363,7.511-7.511C316.198,312.286,312.834,308.924,308.686,308.924z" fill="#000" data-original="#000000" class=""></path>	</g></g><g xmlns="http://www.w3.org/2000/svg">	<g>		<path d="M377.432,308.924H352.7c-4.148,0-7.511,3.363-7.511,7.511c0,4.148,3.363,7.511,7.511,7.511h24.732    c4.149,0,7.511-3.363,7.511-7.511C384.944,312.286,381.582,308.924,377.432,308.924z" fill="#000" data-original="#000000" class=""></path>	</g></g><g xmlns="http://www.w3.org/2000/svg">	<g>		<path d="M102.44,369.441H77.708c-4.148,0-7.511,3.363-7.511,7.511c0,4.148,3.363,7.511,7.511,7.511h24.732    c4.149,0,7.511-3.363,7.511-7.511C109.952,372.804,106.59,369.441,102.44,369.441z" fill="#000" data-original="#000000" class=""></path>	</g></g><g xmlns="http://www.w3.org/2000/svg">	<g>		<path d="M171.187,369.441h-24.729c-4.148,0-7.511,3.363-7.511,7.511c0,4.148,3.363,7.511,7.511,7.511h24.729    c4.149,0,7.511-3.363,7.511-7.511C178.699,372.804,175.336,369.441,171.187,369.441z" fill="#000" data-original="#000000" class=""></path>	</g></g><g xmlns="http://www.w3.org/2000/svg">	<g>		<path d="M239.936,369.441h-24.732c-4.148,0-7.511,3.363-7.511,7.511c0,4.148,3.363,7.511,7.511,7.511h24.732    c4.149,0,7.511-3.363,7.511-7.511C247.448,372.804,244.086,369.441,239.936,369.441z" fill="#000" data-original="#000000" class=""></path>	</g></g><g xmlns="http://www.w3.org/2000/svg">	<g>		<path d="M308.686,369.441h-24.733c-4.148,0-7.511,3.363-7.511,7.511c0,4.148,3.363,7.511,7.511,7.511h24.733    c4.148,0,7.511-3.363,7.511-7.511C316.198,372.804,312.834,369.441,308.686,369.441z" fill="#000" data-original="#000000" class=""></path>	</g></g><g xmlns="http://www.w3.org/2000/svg">	<g>		<path d="M377.432,369.441H352.7c-4.148,0-7.511,3.363-7.511,7.511c0,4.148,3.363,7.511,7.511,7.511h24.732    c4.149,0,7.511-3.363,7.511-7.511C384.944,372.804,381.582,369.441,377.432,369.441z" fill="#000" data-original="#000000" class=""></path>	</g></g><g xmlns="http://www.w3.org/2000/svg">	<g>		<path d="M102.44,429.959H77.708c-4.148,0-7.511,3.363-7.511,7.511c0,4.148,3.363,7.511,7.511,7.511h24.732    c4.149,0,7.511-3.363,7.511-7.511C109.952,433.322,106.59,429.959,102.44,429.959z" fill="#000" data-original="#000000" class=""></path>	</g></g><g xmlns="http://www.w3.org/2000/svg">	<g>		<path d="M171.187,429.959h-24.729c-4.148,0-7.511,3.363-7.511,7.511c0,4.148,3.363,7.511,7.511,7.511h24.729    c4.149,0,7.511-3.363,7.511-7.511C178.699,433.322,175.336,429.959,171.187,429.959z" fill="#000" data-original="#000000" class=""></path>	</g></g><g xmlns="http://www.w3.org/2000/svg">	<g>		<path d="M239.936,429.959h-24.732c-4.148,0-7.511,3.363-7.511,7.511c0,4.148,3.363,7.511,7.511,7.511h24.732    c4.149,0,7.511-3.363,7.511-7.511C247.448,433.322,244.086,429.959,239.936,429.959z" fill="#000" data-original="#000000" class=""></path>	</g></g><g xmlns="http://www.w3.org/2000/svg">	<g>		<path d="M308.686,429.959h-24.733c-4.148,0-7.511,3.363-7.511,7.511c0,4.148,3.363,7.511,7.511,7.511h24.733    c4.148,0,7.511-3.363,7.511-7.511C316.198,433.322,312.834,429.959,308.686,429.959z" fill="#000" data-original="#000000" class=""></path>	</g></g><g xmlns="http://www.w3.org/2000/svg"></g><g xmlns="http://www.w3.org/2000/svg"></g><g xmlns="http://www.w3.org/2000/svg"></g><g xmlns="http://www.w3.org/2000/svg"></g><g xmlns="http://www.w3.org/2000/svg"></g><g xmlns="http://www.w3.org/2000/svg"></g><g xmlns="http://www.w3.org/2000/svg"></g><g xmlns="http://www.w3.org/2000/svg"></g><g xmlns="http://www.w3.org/2000/svg"></g><g xmlns="http://www.w3.org/2000/svg"></g><g xmlns="http://www.w3.org/2000/svg"></g><g xmlns="http://www.w3.org/2000/svg"></g><g xmlns="http://www.w3.org/2000/svg"></g><g xmlns="http://www.w3.org/2000/svg"></g><g xmlns="http://www.w3.org/2000/svg"></g></g></svg>