<svg xmlns="http://www.w3.org/2000/svg" xmlns:xlink="http://www.w3.org/1999/xlink" xmlns:svgjs="http://svgjs.com/svgjs" width="512" height="512" x="0" y="0" viewBox="0 0 511.975 511.975" style="enable-background:new 0 0 512 512" xml:space="preserve" class=""><g><g xmlns="http://www.w3.org/2000/svg"><path d="m511.482 143.895c-.794-6.511-4.08-12.321-9.252-16.358l-156.73-122.352c-10.653-8.316-26.114-6.427-34.463 4.215l-151.831 193.569-100.745 67.449c-.002.001-.004.003-.007.004l-27.809 18.619-19.421 13.003c-.342.229-.677.465-1.004.709-4.913 3.648-8.248 8.915-9.44 14.954-1.268 6.427.043 12.96 3.691 18.396l.013.019c0 .001.001.002.002.003l23.521 35.049 8.148 12.142 47.457 70.717s.001.001.001.002l7.873 11.732 23.725 35.353c4.729 7.047 12.509 10.857 20.427 10.857 4.698 0 9.446-1.342 13.635-4.146l.015-.01c.002-.002.005-.003.007-.004l46.113-30.873 20.37 15.901c4.476 3.493 9.798 5.186 15.085 5.186 7.302 0 14.537-3.229 19.379-9.401l79.946-101.922 116.552-78.032c.153-.088.311-.161.46-.26l47.231-31.623c5.463-3.657 9.172-9.22 10.443-15.662 1.268-6.427-.043-12.96-3.691-18.396l-.026-.038c-.004-.005-.007-.011-.01-.016l-26.736-39.84 32.018-40.82c4.053-5.172 5.849-11.608 5.053-18.126zm-445.084 186.728c-2.945 14.921-10.732 28.092-22.194 37.767l-23.824-35.5-3.44-5.127c-1.419-2.115-1.93-4.658-1.436-7.159.433-2.194 1.592-4.125 3.299-5.528.244-.2.5-.39.766-.568l13.461-9.012 27.2-18.21c6.918 13.294 9.111 28.424 6.168 43.337zm74.537 164.736c-4.392 2.929-10.341 1.764-13.27-2.601l-.328-.489-26.851-40.012c27.441-14.227 61.316-7.639 81.233 15.797zm97.503-15.989c-3.255 4.149-9.28 4.89-13.431 1.649l-16.477-12.863 81.508-54.57zm200.816-231.158c2.945-14.921 10.732-28.093 22.194-37.768l27.252 40.61c1.411 2.113 1.918 4.649 1.425 7.144-.495 2.508-1.938 4.673-4.065 6.097l-40.655 27.219c-6.904-13.285-9.091-28.402-6.151-43.302zm55.37-95.45-29.006 36.979-75.198-112.056c-7.536-11.23-22.817-14.24-34.063-6.711l-66.45 44.488c-8.058 5.396.286 17.856 8.346 12.465l13.128-8.79c15.815 19.455 39.293 29.894 63.183 29.894 13.29 0 26.702-3.243 38.997-9.944l39.492 58.848c-14.762 11.952-24.794 28.517-28.516 47.371-3.718 18.832-.744 37.943 8.347 54.588l-112.101 75.052c-.011.008-.023.015-.034.023l-126.515 84.703c-24.616-30.249-67.759-38.665-102.144-19.923l-39.494-58.851c14.762-11.952 24.794-28.517 28.516-47.371 3.72-18.845.74-37.969-8.367-54.623l190.666-127.652c8.057-5.396-.288-17.859-8.346-12.465l-55.713 37.3 123.488-157.429c3.254-4.148 9.278-4.89 13.431-1.648l156.729 122.351c2.009 1.568 3.284 3.823 3.593 6.352.309 2.533-.39 5.036-1.969 7.049zm-129.921-69.276c4.396-2.941 10.353-1.777 13.285 2.592l13.739 20.472 13.441 20.029c-27.442 14.227-61.317 7.639-81.233-15.797z" fill="#ffffff" data-original="#000000" class=""></path><path d="m197.953 207.635c-21.867 14.641-36.715 36.913-41.808 62.715-5.091 25.79.176 52.019 14.83 73.854 14.705 21.913 37.079 36.761 63 41.809 9.222 1.794 12.226-12.9 2.867-14.724-21.977-4.28-40.945-16.867-53.412-35.444-12.42-18.506-16.884-40.735-12.569-62.592 4.316-21.867 16.901-40.745 35.438-53.155 38.26-25.616 90.254-15.361 115.902 22.858 12.42 18.507 16.883 40.736 12.569 62.593-4.317 21.867-16.902 40.744-35.438 53.153-7.295 4.884-15.231 8.569-23.59 10.952-9.326 2.658-5.213 17.082 4.113 14.425 9.864-2.813 19.225-7.157 27.822-12.913 21.867-14.641 36.715-36.912 41.808-62.713 5.091-25.791-.176-52.02-14.83-73.856-30.252-45.077-91.574-57.174-136.702-26.962z" fill="#ffffff" data-original="#000000" class=""></path><path d="m367.038 220.434c1.435 0 2.885-.411 4.166-1.269l35.307-23.638c3.441-2.305 4.363-6.963 2.06-10.405-2.305-3.442-6.964-4.363-10.405-2.06l-35.307 23.638c-3.441 2.305-4.363 6.963-2.06 10.405 1.446 2.162 3.82 3.329 6.239 3.329z" fill="#ffffff" data-original="#000000" class=""></path><path d="m134.426 359.638-35.306 23.638c-3.441 2.304-4.363 6.962-2.06 10.404 1.447 2.161 3.82 3.329 6.239 3.329 1.435 0 2.885-.411 4.166-1.269l35.306-23.638c3.441-2.304 4.363-6.962 2.06-10.404-2.306-3.442-6.963-4.365-10.405-2.06z" fill="#ffffff" data-original="#000000" class=""></path><path d="m279.454 343.645c5.654 8.426 17.693-.554 12.455-8.358l-4.041-6.021c10.814-11.145 11.166-26.564 6.246-37.47-8.123-18.002-24.827-19.488-41.786-15.49l-17.015-25.355c4.274-1.388 7.605-1.026 7.934-.986 9.548 1.377 11.754-13.361 2.214-14.835-.519-.079-9.023-1.287-18.698 3.081l-3.3-4.917c-5.405-8.051-17.86.306-12.455 8.358l3.599 5.364c-7.793 8.359-10.048 20.639-5.526 31.209 6.625 15.489 21.471 17.33 36.397 14.793l21.895 32.627c-4.339 2.357-7.83 3.091-14.382 3.17-9.476.115-9.08 15.144.182 14.999 10.22-.124 16.122-1.946 22.583-5.678zm-48.712-64.506c-3.108-.229-6.197-2.903-7.869-6.813-1.435-3.354-1.935-8.143.496-12.256l12.763 19.018c-1.923.14-3.74.172-5.39.051zm31.011 10.288c12.344-3.164 17.423 5.735 18.688 8.538 2.373 5.258 2.55 12.394-1.319 18.267l-17.898-26.671c.178-.046.348-.087.529-.134z" fill="#ffffff" data-original="#000000" class=""></path></g></g></svg>