<svg xmlns="http://www.w3.org/2000/svg" xmlns:xlink="http://www.w3.org/1999/xlink" xmlns:svgjs="http://svgjs.com/svgjs"
    width="512" height="512" x="0" y="0" viewBox="0 0 512 512" style="enable-background:new 0 0 512 512"
    xml:space="preserve" class="">
    <g>
        <path xmlns="http://www.w3.org/2000/svg"
            d="m511.508 196.687-34.669-106.354c-.99-3.037-3.371-5.418-6.408-6.409l-106.354-34.668c-3.581-1.166-7.51-.226-10.171 2.437-2.661 2.662-3.603 6.592-2.437 10.17l8.089 24.816-33.892 33.891h-268.742c-12.208 0-22.141 9.933-22.141 22.141v254.595h-24.783c-5.522 0-10 4.477-10 10 0 30.84 25.091 55.931 55.931 55.931h356.456c30.841 0 55.932-25.09 55.932-55.931 0-5.523-4.478-10-10-10h-18.125v-162.212l33.687-33.685 9.294 3.061-24.297 24.296c-3.905 3.905-3.905 10.237 0 14.143 1.953 1.953 4.512 2.929 7.071 2.929s5.119-.977 7.071-2.929l36.052-36.051c2.66-2.663 3.602-6.593 2.436-10.171zm-99.121 246.549h-356.456c-16.343 0-30.173-10.969-34.515-25.931h425.486c-4.341 14.962-18.172 25.931-34.515 25.931zm-357.604-45.93v-254.595c0-1.161.98-2.141 2.141-2.141h265.926l24.711 66.727c1.014 2.735 3.17 4.892 5.905 5.904l66.727 24.711v159.394zm372.872-177.958-62.934-23.306-23.308-62.934 25.098-25.097 19.625 60.206c.987 3.027 3.355 5.403 6.38 6.399l60.084 19.786zm-24.071-62.144-27.002-82.835 82.816 26.996 27.104 83.146zm-113.106 103.073-95.978-55.412c-3.094-1.787-6.906-1.786-10 0s-5 5.087-5 8.66v110.825c0 3.573 1.906 6.874 5 8.66 1.547.894 3.273 1.34 5 1.34s3.453-.446 5-1.34l95.978-55.413c3.094-1.786 5-5.087 5-8.66s-1.907-6.874-5-8.66zm-90.978 46.752v-76.184l65.978 38.092z"
            fill="#000" data-original="#000000"></path>
    </g>
</svg>